PathFileType	4	(X/Y/Z)	C:/Users/opensim2020/Desktop/walking_exp_matlab/subject01_walking12_straight_04.trc																																																																																																																																		
DataRate	CameraRate	NumFrames	NumMarkers	Units	OrigDataRate	OrigDataStartFrame	OrigNumFrames																																																																																																																														
100	100	5	44	mm	100	2372	172																																																																																																																														
Frame#	Time	LFHD			RFHD			LBHD			RBHD			C7			T10			CLAV			STRN			RBAK			LSHO			LUPA			LELB			LFRM			LWRA			LWRB			LFIN			RSHO			RUPA			RELB			RFRM			RWRA			RWRB			RFIN			LASI			RASI			LPSI			RPSI			LTHI			LKNE			LTIB			LANK			LHEE			LTOE			RTHI			RKNE			RTIB			RANK			RHEE			RTOE			*39			*40			*41			*42			*43		
		X1	Y1	Z1	X2	Y2	Z2	X3	Y3	Z3	X4	Y4	Z4	X5	Y5	Z5	X6	Y6	Z6	X7	Y7	Z7	X8	Y8	Z8	X9	Y9	Z9	X10	Y10	Z10	X11	Y11	Z11	X12	Y12	Z12	X13	Y13	Z13	X14	Y14	Z14	X15	Y15	Z15	X16	Y16	Z16	X17	Y17	Z17	X18	Y18	Z18	X19	Y19	Z19	X20	Y20	Z20	X21	Y21	Z21	X22	Y22	Z22	X23	Y23	Z23	X24	Y24	Z24	X25	Y25	Z25	X26	Y26	Z26	X27	Y27	Z27	X28	Y28	Z28	X29	Y29	Z29	X30	Y30	Z30	X31	Y31	Z31	X32	Y32	Z32	X33	Y33	Z33	X34	Y34	Z34	X35	Y35	Z35	X36	Y36	Z36	X37	Y37	Z37	X38	Y38	Z38	X39	Y39	Z39	X40	Y40	Z40	X41	Y41	Z41	X42	Y42	Z42	X43	Y43	Z43	X44	Y44	Z44
																																																																																																																																					
1	0	-910.10956	1675.70276	-1537.30957	-892.586	1681.31421	-1425.76941	-1027.56299	1637.40881	-1524.55322	-1013.35242	1642.42444	-1406.15051	-1072.87585	1443.28552	-1472.03967	-1116.1322	1152.02393	-1445.8407	-930.09906	1373.00098	-1477.47791	-888.9613	1218.32849	-1477.42346	-1127.50513	1254.91687	-1379.80945	-1003.19708	1397.31274	-1634.37354	-1041.23413	1215.9303	-1715.35254	-1050.81665	1062.40881	-1719.63464	-993.64642	963.53271	-1750.82703	-889.80298	870.64642	-1747.24695	-944.5683	852.0022	-1760.53772	-885.47992	796.91248	-1782.17578	-982.47046	1411.34558	-1323.41431	-1052.03101	1223.78333	-1208.43701	-1063.35999	1097.9801	-1196.80957	-1034.44141	979.04407	-1167.27271	-957.43048	861.89648	-1195.34363	-995.78381	863.69617	-1150.55859	-959.23981	785.81549	-1156.70947	-953.9397	942.23462	-1562.52051	-937.21252	946.92059	-1347.26025	-1135.43164	956.11127	-1490.79797	-1119.99622	956.0788	-1346.15149	-1004.80054	608.95117	-1607.91296	-1019.8963	475.06979	-1588.54919	-1087.2948	296.26788	-1589.25232	-1121.41943	80.59725	-1529.63574	-1161.51514	54.70594	-1471.64209	-975.05841	37.81815	-1546.40222	-893.2403	624.29224	-1284.2605	-853.284	473.10672	-1310.27454	-975.94214	346.83835	-1306.06982	-1097.09949	179.17448	-1350.07642	-1155.74158	169.11806	-1402.90588	-1004.19806	69.8801	-1349.16663	-902.84113	1715.48462	-1447.82532	-1972.94641	1023.43378	3101.95361	-2012.52295	1021.97034	3140.69043	NaN	NaN	NaN	NaN	NaN	NaN
2	0.01	-899.13849	1675.52502	-1538.06677	-881.94391	1680.8833	-1426.44482	-1016.68829	1637.48999	-1525.66492	-1002.87665	1642.29053	-1407.45068	-1062.48401	1443.30627	-1473.5636	-1106.43835	1152.1416	-1447.52881	-919.91449	1372.69275	-1478.63147	-878.98083	1218.06677	-1478.92627	-1117.65039	1254.89172	-1381.80396	-992.46008	1397.57397	-1635.75574	-1029.99536	1216.37183	-1717.40259	-1038.23608	1062.6283	-1722.84802	-978.46881	965.45636	-1754.95642	-870.91663	875.9436	-1752.0033	-925.93561	855.64923	-1765.53845	-865.10809	802.54089	-1787.75867	-972.54327	1410.94019	-1324.83838	-1043.67712	1223.61035	-1210.5094	-1055.45935	1098.00269	-1199.20764	-1028.72266	978.82745	-1168.8606	-953.0155	860.34033	-1195.63928	-991.87909	862.80597	-1151.65796	-956.86816	784.37305	-1156.83643	-944.91266	941.71777	-1564.17493	-927.2254	946.98431	-1349.07007	-1126.13208	955.95355	-1491.80994	-1110.03564	955.96692	-1347.18774	-999.91302	608.82837	-1609.00208	-1016.54175	474.9274	-1589.35364	-1084.81104	296.51474	-1589.3468	-1121.19312	81.2849	-1529.49683	-1161.01001	55.79092	-1471.19739	-974.88568	37.6444	-1546.47888	-880.6037	625.56085	-1286.29614	-838.78851	474.08548	-1313.56201	-954.90277	341.6413	-1309.21619	-1068.79224	169.00951	-1354.10376	-1127.31213	155.41573	-1407.16187	-969.08246	66.56886	-1352.98352	-892.07501	1715.17517	-1448.53687	-1972.9491	1024.06873	3102.30298	-2012.47021	1022.08704	3140.823	NaN	NaN	NaN	NaN	NaN	NaN
3	0.02	-888.15948	1675.29749	-1538.74109	-871.2843	1680.37244	-1427.1062	-1005.82312	1637.4314	-1526.76807	-992.30902	1642.02759	-1408.42493	-1052.17004	1443.34155	-1475.23645	-1096.66907	1152.19263	-1449.09827	-909.64142	1372.36658	-1479.74036	-870.95837	1217.15247	-1480.35962	-1107.77722	1254.73376	-1383.65686	-981.70569	1397.72705	-1637.07556	-1018.76086	1216.81104	-1719.63721	-1025.7522	1062.90173	-1726.05688	-963.38519	967.50031	-1758.97522	-853.07599	881.20844	-1756.92749	-907.51477	859.3938	-1770.45068	-845.24292	808.38184	-1793.29456	-962.61035	1410.63513	-1325.90723	-1035.05957	1223.2926	-1212.45593	-1047.46875	1097.96484	-1201.21423	-1022.91595	978.64862	-1170.46826	-948.87885	858.80774	-1195.99573	-988.47333	862.03015	-1152.28638	-954.48914	783.16455	-1156.95496	-935.4566	941.18604	-1565.52039	-917.33331	946.90076	-1350.69482	-1116.63184	955.70221	-1492.73108	-1100.13757	955.77386	-1348.16223	-995.09436	608.67999	-1610.01648	-1013.18347	474.78079	-1590.16248	-1082.56726	296.99289	-1589.67493	-1120.83325	82.12985	-1529.4032	-1160.46814	56.95692	-1470.71375	-974.75977	37.67218	-1546.67444	-868.32263	626.55157	-1288.02783	-825.00568	475.13654	-1316.55994	-934.12585	336.16379	-1312.48181	-1039.48535	158.57175	-1357.95117	-1097.18555	141.26332	-1411.19238	-933.21613	63.3188	-1356.27356	-881.25366	1714.79236	-1449.17297	-1973.16736	1023.92456	3101.93311	-2012.56006	1022.1272	3140.74438	NaN	NaN	NaN	NaN	NaN	NaN
4	0.03	-877.22662	1674.9657	-1539.40759	-860.57581	1679.93701	-1427.74377	-994.95245	1637.2395	-1527.76489	-981.71503	1641.60913	-1409.40649	-1041.80652	1443.22131	-1476.60925	-1086.90491	1152.1438	-1450.53992	-899.30731	1371.95996	-1480.85986	-860.78809	1216.66187	-1481.72217	-1098.43372	1254.7677	-1385.64063	-970.91913	1397.73047	-1638.27917	-1007.48071	1217.02112	-1721.56653	-1013.22375	1063.05334	-1729.09937	-948.32263	969.44281	-1762.82898	-835.56293	886.48218	-1761.73474	-889.32794	863.12732	-1775.1947	-825.46539	814.12561	-1798.51587	-952.55743	1409.96204	-1327.16504	-1026.27515	1222.91028	-1214.28613	-1039.37158	1097.84155	-1203.26697	-1016.83472	978.3634	-1171.92932	-944.78107	857.08008	-1196.53186	-985.23499	861.32794	-1152.5177	-951.95081	781.8468	-1157.20801	-927.87189	940.13165	-1567.16699	-907.19794	946.66797	-1352.03259	-1107.25635	955.51373	-1493.58984	-1089.98486	955.46875	-1348.99292	-990.04712	608.56073	-1610.88477	-1009.62079	474.71863	-1590.9928	-1080.40295	297.58206	-1590.02112	-1120.41418	82.86222	-1529.18799	-1159.94067	58.08309	-1470.30469	-974.45526	37.48006	-1546.63818	-856.51752	627.03961	-1290.38721	-811.71234	475.57773	-1319.47668	-913.98981	330.92352	-1315.56335	-1009.64752	147.97868	-1361.86438	-1066.24036	127.4192	-1415.45117	-897.07184	60.57926	-1359.18567	-870.86804	1714.08215	-1449.91516	-1973.03064	1023.46179	3101.97974	-2012.49402	1021.98584	3140.57813	NaN	NaN	NaN	NaN	NaN	NaN
5	0.04	-866.25342	1674.58423	-1539.97888	-849.97125	1679.32336	-1428.19995	-984.08929	1636.94971	-1528.71838	-971.25739	1641.18518	-1410.40698	-1031.35132	1443.01282	-1477.88757	-1077.09924	1152.06555	-1451.7522	-888.9942	1371.48132	-1481.88257	-850.93988	1216.01233	-1482.90613	-1088.21301	1254.40576	-1387.11572	-960.13422	1397.67395	-1639.34363	-996.19031	1217.12402	-1723.41797	-1000.57404	1063.19031	-1732.04565	-933.36676	971.43182	-1766.60632	-818.31183	891.67474	-1766.31726	-871.4187	866.88934	-1779.75415	-806.17102	819.93732	-1803.63403	-942.54663	1409.58789	-1328.15906	-1017.42395	1222.46155	-1215.85376	-1031.13684	1097.66687	-1205.2041	-1010.53357	978.10315	-1173.37646	-940.34363	855.7099	-1196.79407	-980.99927	860.53137	-1153.20471	-949.2442	780.61548	-1157.38306	-918.67285	939.3208	-1568.401	-896.97363	946.24506	-1353.32385	-1097.79639	955.31622	-1494.27075	-1079.89355	955.09863	-1349.77686	-984.6369	608.43634	-1611.65356	-1005.95288	474.68063	-1591.66125	-1078.72595	298.5173	-1590.63794	-1119.95996	83.74631	-1529.20105	-1159.60278	59.51787	-1470.11975	-974.3537	37.40104	-1546.76648	-844.55115	627.73126	-1291.56531	-799.27496	475.86176	-1322.1825	-893.81738	325.39325	-1318.5769	-978.11499	137.64388	-1365.27808	-1033.43298	113.47205	-1418.8623	-860.58911	58.19966	-1361.99548	-859.78326	1713.80591	-1450.22485	-1973.09802	1023.45514	3101.96143	-2012.3656	1022.00812	3140.80103	NaN	NaN	NaN	NaN	NaN	NaN
